<svg width="392" height="51" viewBox="0 0 392 51" fill="none" xmlns="http://www.w3.org/2000/svg">
<g clip-path="url(#clip0_13910_176702)">
<path d="M392 25.466C391.998 25.466 391.996 25.4653 391.995 25.464L373.686 2.65012C372.341 0.974756 370.309 0 368.161 0C362.208 0 358.91 6.89608 362.645 11.5303L373.905 25.4989C373.906 25.4992 373.906 25.4996 373.906 25.5C373.906 25.5004 373.906 25.5008 373.905 25.5011L362.638 39.479C358.905 44.1095 362.201 51 368.149 51C370.298 51 372.33 50.0237 373.674 48.3463L391.997 25.4676C391.997 25.4674 391.997 25.4673 391.997 25.4673H391.999C391.999 25.4673 391.999 25.4669 391.999 25.4667C391.999 25.4664 391.999 25.466 391.999 25.466H392Z" fill="#EEF0F2"/>
<path opacity="0.6" d="M361.457 25.466C361.455 25.466 361.453 25.4653 361.452 25.464L343.143 2.65012C341.798 0.974756 339.766 0 337.618 0C331.665 0 328.367 6.89608 332.102 11.5303L343.363 25.4989C343.363 25.4992 343.363 25.4996 343.363 25.5C343.363 25.5004 343.363 25.5008 343.363 25.5011L332.095 39.479C328.362 44.1095 331.658 51 337.606 51C339.755 51 341.787 50.0237 343.131 48.3463L361.454 25.4676C361.454 25.4674 361.454 25.4673 361.455 25.4673H361.456C361.456 25.4673 361.456 25.4669 361.456 25.4667C361.456 25.4664 361.456 25.466 361.456 25.466H361.457Z" fill="#EEF0F2"/>
<path opacity="0.2" d="M330.914 25.466C330.912 25.466 330.911 25.4653 330.91 25.464L312.6 2.65012C311.255 0.974756 309.223 0 307.075 0C301.122 0 297.824 6.89608 301.559 11.5303L312.82 25.4989C312.82 25.4992 312.82 25.4996 312.82 25.5C312.82 25.5004 312.82 25.5008 312.82 25.5011L301.552 39.479C297.819 44.1095 301.115 51 307.063 51C309.212 51 311.244 50.0237 312.588 48.3463L330.911 25.4676C330.911 25.4674 330.911 25.4673 330.912 25.4673H330.913C330.913 25.4673 330.913 25.4669 330.913 25.4667C330.913 25.4664 330.913 25.466 330.913 25.466H330.914Z" fill="#EEF0F2"/>
<path d="M0 25.5333C0 25.5337 0.000286789 25.534 0.000640561 25.534H0.000869177C0.00113273 25.534 0.00138205 25.5341 0.00154702 25.5343L18.3141 48.3502C19.6586 50.0254 21.6906 51 23.8386 51C29.7906 51 33.0891 44.1044 29.3536 39.4704L18.0929 25.5011C18.0926 25.5008 18.0925 25.5004 18.0925 25.5C18.0925 25.4996 18.0926 25.4992 18.0929 25.4989L29.3612 11.5202C33.0936 6.89004 29.7978 0 23.8506 0C21.7018 0 19.6693 0.976142 18.326 2.65332L0.0015457 25.5324C0.00138082 25.5326 0.00113256 25.5327 0.000868805 25.5327H0.000640561C0.000286789 25.5327 0 25.533 0 25.5333Z" fill="#EEF0F2"/>
<path opacity="0.6" d="M30.543 25.5333C30.543 25.5337 30.5433 25.534 30.5436 25.534H30.5438C30.5441 25.534 30.5444 25.5341 30.5445 25.5343L48.857 48.3502C50.2015 50.0254 52.2335 51 54.3815 51C60.3336 51 63.6321 44.1044 59.8966 39.4704L48.6358 25.5011C48.6356 25.5008 48.6354 25.5004 48.6354 25.5C48.6354 25.4996 48.6356 25.4992 48.6358 25.4989L59.9041 11.5202C63.6366 6.89004 60.3408 0 54.3935 0C52.2447 0 50.2123 0.976143 48.869 2.65332L30.5445 25.5324C30.5443 25.5326 30.5441 25.5327 30.5438 25.5327H30.5436C30.5433 25.5327 30.543 25.533 30.543 25.5333Z" fill="#EEF0F2"/>
<path opacity="0.2" d="M61.0859 25.5333C61.0859 25.5337 61.0862 25.534 61.0866 25.534H61.0868C61.0871 25.534 61.0873 25.5341 61.0875 25.5343L79.4 48.3502C80.7445 50.0254 82.7765 51 84.9245 51C90.8766 51 94.175 44.1044 90.4396 39.4704L79.1788 25.5011C79.1785 25.5008 79.1784 25.5004 79.1784 25.5C79.1784 25.4996 79.1785 25.4992 79.1788 25.4989L90.4471 11.5202C94.1796 6.89004 90.8838 0 84.9365 0C82.7877 0 80.7552 0.976142 79.4119 2.65332L61.0875 25.5324C61.0873 25.5326 61.0871 25.5327 61.0868 25.5327H61.0866C61.0862 25.5327 61.0859 25.533 61.0859 25.5333Z" fill="#EEF0F2"/>
<path d="M122.664 38.5999C123.93 38.5999 124.974 38.4948 125.798 38.2846C126.623 38.0744 127.284 37.7885 127.783 37.4245C128.281 37.0617 128.627 36.631 128.818 36.135C129.01 35.6389 129.106 35.0839 129.106 34.4724C129.106 33.1739 128.493 32.0934 127.266 31.2333C126.038 30.3731 123.93 29.4477 120.938 28.453C119.634 27.9941 118.33 27.4698 117.027 26.8763C115.723 26.2841 114.554 25.5394 113.519 24.6408C112.484 23.7435 111.64 22.654 110.988 21.3734C110.336 20.0929 110.011 18.5355 110.011 16.7012C110.011 14.8669 110.355 13.2146 111.046 11.7418C111.737 10.2716 112.714 9.01921 113.979 7.98734C115.245 6.95547 116.778 6.1633 118.581 5.60827C120.383 5.05452 122.415 4.77637 124.678 4.77637C127.362 4.77637 129.682 5.0635 131.639 5.63647C133.595 6.20945 135.205 6.84011 136.47 7.52845L133.881 14.5798C132.769 14.0068 131.532 13.5005 130.171 13.0608C128.809 12.6224 127.171 12.4019 125.253 12.4019C123.105 12.4019 121.562 12.6981 120.623 13.2903C119.683 13.8837 119.214 14.7913 119.214 16.0129C119.214 16.7396 119.386 17.3511 119.732 17.8471C120.077 18.3445 120.567 18.7931 121.198 19.1943C121.83 19.5956 122.559 19.9596 123.384 20.2839C124.209 20.6095 125.119 20.9428 126.116 21.2876C128.187 22.0528 129.988 22.8065 131.523 23.5526C133.056 24.2973 134.332 25.1677 135.348 26.1611C136.364 27.1558 137.121 28.3209 137.62 29.6579C138.118 30.9961 138.367 32.6202 138.367 34.5314C138.367 38.2384 137.063 41.1148 134.456 43.1594C131.848 45.2039 127.918 46.2268 122.666 46.2268C120.901 46.2268 119.31 46.1217 117.892 45.9114C116.473 45.7012 115.217 45.4436 114.125 45.1372C113.032 44.8321 112.091 44.5066 111.306 44.163C110.52 43.8195 109.858 43.4952 109.321 43.1888L111.852 36.0798C113.041 36.7297 114.507 37.3129 116.252 37.8282C117.996 38.3448 120.135 38.6025 122.666 38.6025L122.664 38.5999Z" fill="#EEF0F2"/>
<path d="M171.48 9.9359C171.939 11.5036 172.446 13.2712 173.001 15.2388C173.557 17.2077 174.15 19.2432 174.781 21.3441C175.413 23.4463 176.055 25.5485 176.704 27.6507C177.355 29.7529 177.986 31.7026 178.6 33.4984C179.1 31.5488 179.611 29.4286 180.131 27.1354C180.651 24.8422 181.142 22.4734 181.604 20.0264C182.066 17.5807 182.518 15.144 182.962 12.7175C183.406 10.291 183.82 7.95035 184.204 5.69434H193.525C192.174 12.3444 190.622 19.0907 188.866 25.9318C187.111 32.7742 185.211 39.2705 183.168 45.4232H174.96C173.62 41.7547 172.318 37.9041 171.056 33.8714C169.791 29.8401 168.548 25.7985 167.325 21.7466C166.096 25.7985 164.867 29.8401 163.639 33.8714C162.411 37.9041 161.125 41.7534 159.781 45.4232H151.579C149.537 39.2705 147.641 32.7729 145.89 25.9318C144.137 19.0907 142.588 12.3444 141.239 5.69434H150.959C151.344 7.95035 151.768 10.291 152.231 12.7175C152.693 15.1452 153.175 17.582 153.677 20.0264C154.177 22.4722 154.688 24.8422 155.209 27.1354C155.729 29.4286 156.259 31.55 156.798 33.4984C157.489 31.6257 158.161 29.6388 158.815 27.5366C159.467 25.4357 160.102 23.3323 160.717 21.2301C161.332 19.1292 161.897 17.1026 162.416 15.1529C162.934 13.2033 163.405 11.4651 163.828 9.9359H171.477H171.48Z" fill="#EEF0F2"/>
<path d="M199.221 5.69336H208.194V45.4223H199.221V5.69336Z" fill="#EEF0F2"/>
<path d="M229.359 5.23535C235.302 5.23535 239.865 6.27748 243.048 8.35916C246.231 10.4421 247.822 13.8531 247.822 18.592C247.822 23.3309 246.212 26.8187 242.99 28.9402C239.769 31.0616 235.168 32.1216 229.186 32.1216H226.366V45.4219H217.394V6.26722C219.35 5.88524 221.42 5.61734 223.605 5.4648C225.79 5.31226 227.708 5.23535 229.357 5.23535H229.359ZM229.934 12.8597C229.282 12.8597 228.64 12.8789 228.008 12.9173C227.375 12.9558 226.828 12.9942 226.368 13.0314V24.4973H229.187C232.293 24.4973 234.631 24.0769 236.204 23.236C237.775 22.3952 238.562 20.8288 238.562 18.5356C238.562 17.4281 238.36 16.5103 237.958 15.7835C237.555 15.058 236.98 14.4748 236.232 14.0351C235.485 13.5967 234.573 13.2903 233.5 13.1173C232.426 12.9455 231.237 12.8597 229.934 12.8597Z" fill="#EEF0F2"/>
<path d="M254.438 45.4223V5.69336H281.356V13.2036H263.41V20.9996H279.344V28.3381H263.41V37.9121H282.678V45.4223H254.438Z" fill="#EEF0F2"/>
</g>
<defs>
<clipPath id="clip0_13910_176702">
<rect width="392" height="51" fill="white"/>
</clipPath>
</defs>
</svg>
